<?xml version="1.0" encoding="utf-8"?>
<!-- Generator: Adobe Illustrator 22.0.1, SVG Export Plug-In . SVG Version: 6.00 Build 0)  -->
<svg version="1.1" id="Layer_1" xmlns="http://www.w3.org/2000/svg" xmlns:xlink="http://www.w3.org/1999/xlink" x="0px" y="0px"
	 viewBox="0 0 65 65" style="enable-background:new 0 0 65 65;" xml:space="preserve">
<style type="text/css">
	.st0{fill:#5A2D6B;}
	.st1{fill:#F16528;}
</style>
<g id="XMLID_946_">
	<path id="XMLID_4529_" class="st0" d="M45.2,38.3c-0.9-0.9-2-1.4-3.1-1.4c-1.1,0-2.2,0.5-3.1,1.4l-2.9,2.9
		c-0.2-0.1-0.5-0.2-0.7-0.4c-0.3-0.2-0.6-0.3-0.9-0.5c-2.7-1.7-5.2-4-7.6-6.9c-1.1-1.5-1.9-2.7-2.5-3.9c0.8-0.7,1.5-1.4,2.1-2.1
		c0.3-0.3,0.5-0.5,0.8-0.8c1.9-1.9,1.9-4.4,0-6.4l-2.5-2.5c-0.3-0.3-0.6-0.6-0.9-0.9c-0.6-0.6-1.1-1.2-1.7-1.7
		c-0.9-0.9-2-1.3-3.1-1.3c-1.1,0-2.2,0.5-3.1,1.3l0,0l-3.1,3.1c-1.2,1.2-1.8,2.6-2,4.3c-0.2,2.7,0.6,5.2,1.2,6.8
		c1.5,4,3.7,7.7,7,11.7c4,4.8,8.9,8.6,14.4,11.3c2.1,1,4.9,2.2,8.1,2.4c0.2,0,0.4,0,0.6,0c2.1,0,3.9-0.8,5.3-2.3c0,0,0,0,0,0
		c0.5-0.6,1-1.1,1.6-1.7c0.4-0.4,0.8-0.8,1.2-1.2c0.9-0.9,1.4-2,1.4-3.2c0-1.1-0.5-2.2-1.4-3.1L45.2,38.3z M48.5,48
		C48.5,48,48.5,48,48.5,48c-0.4,0.4-0.7,0.7-1.1,1.1c-0.6,0.6-1.2,1.2-1.8,1.8c-0.9,1-2,1.5-3.5,1.5c-0.1,0-0.3,0-0.4,0
		c-2.7-0.2-5.3-1.2-7.2-2.1c-5.2-2.5-9.8-6.1-13.5-10.6c-3.1-3.8-5.2-7.3-6.6-11c-0.9-2.3-1.2-4.1-1-5.7c0.1-1.1,0.5-2,1.3-2.7
		l3.1-3.1c0.4-0.4,0.9-0.7,1.4-0.7c0.6,0,1,0.3,1.3,0.6l0,0c0.6,0.5,1.1,1.1,1.7,1.6c0.3,0.3,0.6,0.6,0.9,0.9l2.5,2.5
		c1,1,1,1.9,0,2.8c-0.3,0.3-0.5,0.5-0.8,0.8c-0.8,0.8-1.5,1.5-2.3,2.2c0,0,0,0,0,0c-0.8,0.8-0.6,1.6-0.5,2.1l0,0.1
		c0.7,1.6,1.6,3.1,3,4.8l0,0c2.5,3.1,5.2,5.6,8.2,7.4c0.4,0.2,0.8,0.4,1.1,0.6c0.3,0.2,0.6,0.3,0.9,0.5c0,0,0.1,0,0.1,0.1
		c0.3,0.2,0.6,0.2,0.9,0.2c0.8,0,1.2-0.5,1.4-0.6l3.1-3.1c0.3-0.3,0.8-0.7,1.4-0.7c0.6,0,1,0.4,1.3,0.7l0,0l5.1,5.1
		C49.5,46,49.5,47,48.5,48L48.5,48z M48.5,48"/>
	<path id="XMLID_947_" class="st1" d="M34.4,21.7c2.4,0.4,4.6,1.5,6.3,3.3c1.7,1.7,2.9,3.9,3.3,6.3c0.1,0.6,0.6,1,1.2,1
		c0.1,0,0.1,0,0.2,0c0.7-0.1,1.1-0.8,1-1.4c-0.5-2.9-1.9-5.6-4-7.7c-2.1-2.1-4.8-3.5-7.7-4c-0.7-0.1-1.3,0.3-1.4,1
		C33.2,20.9,33.7,21.6,34.4,21.7L34.4,21.7z M34.4,21.7"/>
	<path id="XMLID_948_" class="st1" d="M54.3,30.5c-0.8-4.8-3.1-9.2-6.5-12.6c-3.5-3.5-7.8-5.7-12.6-6.5c-0.7-0.1-1.3,0.3-1.4,1
		c-0.1,0.7,0.3,1.3,1,1.4c4.3,0.7,8.2,2.8,11.3,5.8c3.1,3.1,5.1,7,5.8,11.3c0.1,0.6,0.6,1,1.2,1c0.1,0,0.1,0,0.2,0
		C54,31.9,54.4,31.2,54.3,30.5L54.3,30.5z M54.3,30.5"/>
</g>
</svg>
