<?xml version="1.0" encoding="utf-8"?>
<!-- Generator: Adobe Illustrator 22.0.1, SVG Export Plug-In . SVG Version: 6.00 Build 0)  -->
<svg version="1.1" id="Layer_1" xmlns="http://www.w3.org/2000/svg" xmlns:xlink="http://www.w3.org/1999/xlink" x="0px" y="0px"
	 viewBox="0 0 65 65" style="enable-background:new 0 0 65 65;" xml:space="preserve">
<style type="text/css">
	.st0{fill:#F16528;}
	.st1{fill:#5A2D6B;}
</style>
<g id="XMLID_4497_">
	<path id="XMLID_5417_" class="st0" d="M42.7,25.9H22.1c-0.5,0-0.8,0.4-0.8,0.8c0,0.5,0.4,0.8,0.8,0.8h20.6c0.5,0,0.8-0.4,0.8-0.8
		C43.5,26.3,43.1,25.9,42.7,25.9L42.7,25.9z M42.7,25.9"/>
	<path id="XMLID_5217_" class="st0" d="M22.1,21h8.2c0.5,0,0.8-0.4,0.8-0.8c0-0.5-0.4-0.8-0.8-0.8h-8.2c-0.5,0-0.8,0.4-0.8,0.8
		C21.3,20.6,21.6,21,22.1,21L22.1,21z M22.1,21"/>
	<path id="XMLID_5200_" class="st0" d="M42.7,32.5H22.1c-0.5,0-0.8,0.4-0.8,0.8c0,0.5,0.4,0.8,0.8,0.8h20.6c0.5,0,0.8-0.4,0.8-0.8
		C43.5,32.8,43.1,32.5,42.7,32.5L42.7,32.5z M42.7,32.5"/>
	<path id="XMLID_5152_" class="st0" d="M42.7,39H22.1c-0.5,0-0.8,0.4-0.8,0.8c0,0.5,0.4,0.8,0.8,0.8h20.6c0.5,0,0.8-0.4,0.8-0.8
		C43.5,39.4,43.1,39,42.7,39L42.7,39z M42.7,39"/>
	<path id="XMLID_4770_" class="st0" d="M42.7,45.6H22.1c-0.5,0-0.8,0.4-0.8,0.8c0,0.5,0.4,0.8,0.8,0.8h20.6c0.5,0,0.8-0.4,0.8-0.8
		C43.5,46,43.1,45.6,42.7,45.6L42.7,45.6z M42.7,45.6"/>
	<path id="XMLID_4501_" class="st1" d="M39.7,7.8H13v49.3h38.7V19.8L39.7,7.8z M40.2,10.6l8.7,8.7h-8.7V10.6z M14.7,55.5V9.4h23.8
		V21h11.5v34.5H14.7z M14.7,55.5"/>
</g>
</svg>
