<?xml version="1.0" encoding="utf-8"?>
<!-- Generator: Adobe Illustrator 22.0.1, SVG Export Plug-In . SVG Version: 6.00 Build 0)  -->
<svg version="1.1" id="Layer_1" xmlns="http://www.w3.org/2000/svg" xmlns:xlink="http://www.w3.org/1999/xlink" x="0px" y="0px"
	 viewBox="0 0 30 30" style="enable-background:new 0 0 30 30;" xml:space="preserve">
<style type="text/css">
	.st0{fill:#5A2D6B;}
</style>
<g id="XMLID_670_">
	<g>
		<g id="XMLID_46_">
			<path id="XMLID_47_" class="st0" d="M14.8,16.4c-3.6,0-6.6-3-6.6-6.7s3-6.7,6.6-6.7s6.6,3,6.6,6.7S18.4,16.4,14.8,16.4z
				 M14.8,4.3c-2.9,0-5.3,2.4-5.3,5.4s2.4,5.4,5.3,5.4s5.3-2.4,5.3-5.4S17.7,4.3,14.8,4.3z"/>
		</g>
		<g id="XMLID_44_">
			<path id="XMLID_45_" class="st0" d="M26.7,27.7h-1.2c0-6-4.8-10.9-10.7-10.9S4,21.7,4,27.7H2.8c0-6.7,5.4-12.1,12-12.1
				S26.7,21,26.7,27.7z"/>
		</g>
	</g>
</g>
</svg>
