<?xml version="1.0" encoding="utf-8"?>
<!-- Generator: Adobe Illustrator 22.0.1, SVG Export Plug-In . SVG Version: 6.00 Build 0)  -->
<svg version="1.1" id="Layer_1" xmlns="http://www.w3.org/2000/svg" xmlns:xlink="http://www.w3.org/1999/xlink" x="0px" y="0px"
	 viewBox="0 0 65 65" style="enable-background:new 0 0 65 65;" xml:space="preserve">
<style type="text/css">
	.st0{fill:#F16528;}
	.st1{fill:#5A2D6B;}
</style>
<g id="XMLID_6797_">
	<path class="st0" d="M15,25.9c1.1,0,2.2,0.1,3.4,0.3V28c-1.2-0.2-2.2-0.3-3.3-0.3c-0.9,0-1.6,0.1-1.9,0.4c-0.3,0.3-0.5,0.7-0.5,1.3
		c0,0.5,0.1,0.8,0.4,1c0.2,0.2,0.9,0.5,1.9,0.8c0.4,0.1,0.7,0.3,0.9,0.3c0.2,0.1,0.5,0.2,0.8,0.3c0.3,0.1,0.5,0.2,0.7,0.3
		c0.1,0.1,0.3,0.2,0.5,0.4c0.2,0.1,0.3,0.3,0.4,0.4c0.1,0.1,0.2,0.3,0.3,0.5s0.2,0.4,0.2,0.7c0,0.2,0.1,0.5,0.1,0.8
		c0,1.4-0.4,2.3-1.2,2.9c-0.8,0.6-1.9,0.9-3.4,0.9c-1.1,0-2.3-0.1-3.7-0.4v-1.8c1.3,0.3,2.5,0.4,3.6,0.4c0.9,0,1.5-0.1,1.9-0.4
		c0.4-0.3,0.6-0.8,0.6-1.5c0-0.5-0.1-0.9-0.4-1.1c-0.3-0.2-0.9-0.5-1.9-0.9c0,0-0.1,0-0.2-0.1c-0.3-0.1-0.6-0.2-0.7-0.3
		s-0.4-0.1-0.6-0.2s-0.5-0.2-0.6-0.2c-0.1-0.1-0.3-0.1-0.5-0.2c-0.2-0.1-0.3-0.2-0.4-0.3c-0.1-0.1-0.2-0.2-0.3-0.3
		c-0.1-0.1-0.2-0.3-0.2-0.4c0-0.1-0.1-0.3-0.2-0.4c-0.1-0.2-0.1-0.3-0.1-0.5c0-0.2,0-0.4,0-0.6c0-1.2,0.3-2.1,1-2.8
		S13.4,25.9,15,25.9z"/>
	<path class="st0" d="M24,26.2c0.6-0.2,1.3-0.3,2.2-0.3s1.6,0.1,2.2,0.3c0.6,0.2,1.1,0.5,1.5,0.8c0.4,0.3,0.7,0.8,0.9,1.3
		s0.4,1.2,0.5,1.8c0.1,0.6,0.1,1.4,0.1,2.3s0,1.6-0.1,2.3c-0.1,0.6-0.3,1.2-0.5,1.8s-0.5,1-0.9,1.3s-0.9,0.6-1.5,0.8
		c-0.6,0.2-1.3,0.3-2.2,0.3s-1.6-0.1-2.2-0.3c-0.6-0.2-1.1-0.5-1.5-0.8s-0.7-0.8-0.9-1.3s-0.4-1.2-0.5-1.8C21,34,21,33.3,21,32.4
		s0-1.6,0.1-2.3s0.2-1.2,0.5-1.8s0.5-1,0.9-1.3C22.9,26.6,23.4,26.4,24,26.2z M27.7,28c-0.4-0.2-0.9-0.2-1.5-0.2
		c-0.6,0-1.1,0.1-1.5,0.2c-0.4,0.2-0.7,0.4-0.9,0.8c-0.2,0.4-0.4,0.9-0.5,1.4c-0.1,0.5-0.1,1.3-0.1,2.1s0,1.6,0.1,2.1
		c0.1,0.5,0.2,1,0.5,1.4s0.5,0.7,0.9,0.8c0.4,0.2,0.9,0.2,1.5,0.2c0.6,0,1.1-0.1,1.5-0.2s0.7-0.4,0.9-0.8s0.4-0.9,0.5-1.4
		c0.1-0.5,0.1-1.3,0.1-2.1s0-1.6-0.1-2.1c-0.1-0.5-0.2-1-0.5-1.4C28.4,28.4,28.1,28.1,27.7,28z"/>
	<path class="st0" d="M41.4,38.6l-1-3.2h-4.5l-1,3.2h-2.2l4.2-12.5h0.6h1.4h0.6l4.2,12.5H41.4z M36.4,33.7h3.4l-1.7-5.4L36.4,33.7z"
		/>
	<path class="st0" d="M52.2,26.1v1.7H49v10.8h-2.1V27.9h-3.3v-1.7h3.3H49H52.2z"/>
</g>
<g id="XMLID_5_">
	<path class="st1" d="M32.1,61.2c-3.2,0-6.2-1.2-8.5-3.5L7,41.1c-4.7-4.7-4.7-12.3,0-16.9L23.6,7.6c2.3-2.3,5.3-3.5,8.5-3.5
		c3.2,0,6.2,1.2,8.5,3.5l16.6,16.6c2.3,2.3,3.5,5.3,3.5,8.5c0,3.2-1.2,6.2-3.5,8.5L40.6,57.7C38.3,60,35.3,61.2,32.1,61.2z
		 M8.4,25.6c-3.9,3.9-3.9,10.3,0,14.2L25,56.4c3.9,3.9,10.3,3.9,14.2,0l16.6-16.6c3.9-3.9,3.9-10.3,0-14.2L39.2,9
		C35.3,5.1,28.9,5.1,25,9L8.4,25.6z"/>
</g>
</svg>
