<?xml version="1.0" encoding="utf-8"?>
<!-- Generator: Adobe Illustrator 22.0.1, SVG Export Plug-In . SVG Version: 6.00 Build 0)  -->
<svg version="1.1" id="Layer_1" xmlns="http://www.w3.org/2000/svg" xmlns:xlink="http://www.w3.org/1999/xlink" x="0px" y="0px"
	 viewBox="0 0 65 65" style="enable-background:new 0 0 65 65;" xml:space="preserve">
<style type="text/css">
	.st0{fill:#5A2D6B;}
	.st1{fill:#F16528;}
</style>
<g id="XMLID_4439_">
	<path id="XMLID_5275_" class="st0" d="M47.9,34.4v-8c0-6.1-4-10.1-7.5-11.7c-1-0.5-2-0.8-3.1-1.1v-0.5c0-2.4-2-4.4-4.4-4.4
		c-2.4,0-4.4,2-4.4,4.4v0.6c-0.9,0.3-1.9,0.6-2.8,1c-3.9,1.8-7.8,6.1-7.8,11.7v8c0,5.6-2,10.5-5.9,14.4c-0.2,0.2-0.3,0.6-0.2,0.9
		c0.1,0.3,0.4,0.6,0.7,0.6l8.4,1.4c1.6,0.3,3,0.5,4.4,0.7c1.5,3,4.6,5,7.9,5c3.3,0,6.3-1.9,7.9-5c1.4-0.2,2.8-0.4,4.4-0.7l8.4-1.4
		c0.3-0.1,0.6-0.3,0.7-0.6c0.1-0.3,0-0.7-0.2-0.9C50,44.7,47.9,39.8,47.9,34.4L47.9,34.4z M30.2,13.2c0-1.5,1.2-2.7,2.7-2.7
		c1.5,0,2.7,1.2,2.7,2.7v0.2c-1.8-0.3-3.5-0.2-5.3,0V13.2z M33,55.6c-2.2,0-4.3-1.1-5.7-2.9c2,0.2,3.8,0.3,5.7,0.3
		c1.9,0,3.7-0.1,5.7-0.3C37.3,54.5,35.2,55.6,33,55.6L33,55.6z M44.9,50c-1.7,0.3-3.3,0.5-4.7,0.7h0c-0.6,0.1-1.3,0.2-1.9,0.2
		c0,0,0,0,0,0c-0.6,0.1-1.1,0.1-1.7,0.1c-0.1,0-0.2,0-0.3,0c-0.5,0-0.9,0.1-1.4,0.1c-0.1,0-0.2,0-0.3,0c-1.1,0-2.2,0-3.3,0
		c-0.1,0-0.2,0-0.3,0c-0.5,0-0.9,0-1.4-0.1c-0.1,0-0.2,0-0.3,0c-0.5,0-1.1-0.1-1.6-0.1c0,0,0,0-0.1,0c-0.6-0.1-1.2-0.1-1.9-0.2h0
		c-1.5-0.2-3-0.4-4.7-0.7l-6.8-1.2c3.5-4,5.3-8.9,5.3-14.4v-8c0-4.8,3.4-8.5,6.8-10.1c1-0.5,2-0.8,3.1-1c0,0,0,0,0,0
		c2.2-0.5,4.5-0.5,6.7-0.1c0,0,0,0,0,0c1.2,0.2,2.3,0.6,3.4,1.1c3.3,1.5,6.5,5.2,6.5,10.1v8c0,5.3,1.9,10.3,5.6,14.4L44.9,50z
		 M44.9,50"/>
	<path id="XMLID_5224_" class="st1" d="M10.5,26.7c-0.3-0.3-0.9-0.3-1.2,0c-1.9,1.9-3,4.5-3,7.2c0,2.7,1.1,5.3,3,7.2
		c0.2,0.2,0.4,0.3,0.6,0.3c0.2,0,0.5-0.1,0.6-0.3c0.3-0.3,0.3-0.9,0-1.3c-1.6-1.6-2.5-3.7-2.5-6c0-2.3,0.9-4.4,2.5-6
		C10.9,27.6,10.9,27,10.5,26.7L10.5,26.7z M10.5,26.7"/>
	<path id="XMLID_4594_" class="st1" d="M13.6,39.4c0.2,0,0.5-0.1,0.6-0.3c0.3-0.4,0.3-0.9,0-1.3c-2.3-2.3-2.3-5.9,0-8.2
		c0.3-0.3,0.3-0.9,0-1.2c-0.3-0.3-0.9-0.3-1.3,0c-2.9,2.9-2.9,7.7,0,10.7C13.2,39.3,13.4,39.4,13.6,39.4L13.6,39.4z M13.6,39.4"/>
	<path id="XMLID_4518_" class="st1" d="M56.4,26.7c-0.3-0.3-0.9-0.3-1.2,0c-0.3,0.3-0.3,0.9,0,1.3c1.6,1.6,2.5,3.7,2.5,6
		c0,2.3-0.9,4.4-2.5,6c-0.3,0.3-0.3,0.9,0,1.3c0.2,0.2,0.4,0.3,0.6,0.3c0.2,0,0.5-0.1,0.6-0.3c1.9-1.9,3-4.5,3-7.2
		C59.4,31.2,58.3,28.6,56.4,26.7L56.4,26.7z M56.4,26.7"/>
	<path id="XMLID_4442_" class="st1" d="M51.4,28.4c-0.3,0.3-0.3,0.9,0,1.2c2.3,2.3,2.3,5.9,0,8.2c-0.3,0.3-0.3,0.9,0,1.3
		c0.2,0.2,0.4,0.3,0.6,0.3c0.2,0,0.5-0.1,0.6-0.3c2.9-3,2.9-7.8,0-10.7C52.3,28.1,51.7,28.1,51.4,28.4L51.4,28.4z M51.4,28.4"/>
</g>
</svg>
