<?xml version="1.0" encoding="utf-8"?>
<!-- Generator: Adobe Illustrator 22.0.1, SVG Export Plug-In . SVG Version: 6.00 Build 0)  -->
<svg version="1.1" id="Layer_1" xmlns="http://www.w3.org/2000/svg" xmlns:xlink="http://www.w3.org/1999/xlink" x="0px" y="0px"
	 viewBox="0 0 30 30" style="enable-background:new 0 0 30 30;" xml:space="preserve">
<style type="text/css">
	.st0{fill:#5A2D6B;}
</style>
<g id="XMLID_874_">
	<g>
		<g id="XMLID_94_">
			<path id="XMLID_95_" class="st0" d="M17,29.2h-4.5c-5,0-9.1-4.1-9.1-9.2V9h22.7v11C26.1,25.1,22,29.2,17,29.2z M4.8,10.4V20
				c0,4.3,3.5,7.8,7.7,7.8H17c4.3,0,7.7-3.5,7.7-7.8v-9.6H4.8z"/>
		</g>
		<g id="XMLID_92_">
			<path id="XMLID_93_" class="st0" d="M21.8,9.7h-1.4V7c0-2.4-1.9-4.4-4.3-4.4h-2.7c-2.4,0-4.3,2-4.3,4.4v2.7H7.7V7
				c0-3.2,2.6-5.8,5.7-5.8h2.7c3.2,0,5.7,2.6,5.7,5.8V9.7z"/>
		</g>
		<g id="XMLID_88_">
			<path id="XMLID_89_" class="st0" d="M14.8,19.8c-1.6,0-2.9-1.3-2.9-2.9c0-1.6,1.3-2.9,2.9-2.9s2.9,1.3,2.9,2.9
				C17.7,18.5,16.4,19.8,14.8,19.8z M14.8,15.3c-0.8,0-1.5,0.7-1.5,1.5c0,0.8,0.7,1.5,1.5,1.5s1.5-0.7,1.5-1.5
				C16.3,16,15.6,15.3,14.8,15.3z"/>
		</g>
		<g id="XMLID_86_">
			<rect id="XMLID_87_" x="14.1" y="19.1" class="st0" width="1.4" height="4.8"/>
		</g>
	</g>
</g>
</svg>
