<?xml version="1.0" encoding="utf-8"?>
<!-- Generator: Adobe Illustrator 22.0.1, SVG Export Plug-In . SVG Version: 6.00 Build 0)  -->
<svg version="1.1" id="Layer_1" xmlns="http://www.w3.org/2000/svg" xmlns:xlink="http://www.w3.org/1999/xlink" x="0px" y="0px"
	 viewBox="0 0 65 65" style="enable-background:new 0 0 65 65;" xml:space="preserve">
<style type="text/css">
	.st0{fill:#F16528;}
	.st1{fill:#5A2D6B;}
</style>
<g id="XMLID_6778_">
	<g>
		<g id="XMLID_88_">
			<path id="XMLID_89_" class="st0" d="M43.5,18.4h-3.1c0-4.2-3.5-7.6-7.8-7.6s-7.8,3.4-7.8,7.6h-3.1c0-5.9,4.9-10.7,10.9-10.7
				C38.6,7.7,43.5,12.5,43.5,18.4z"/>
		</g>
		<g id="XMLID_83_">
			<g id="XMLID_86_">
				<rect id="XMLID_87_" x="11.3" y="18.4" class="st1" width="3.1" height="37.4"/>
			</g>
			<g id="XMLID_84_">
				<rect id="XMLID_85_" x="50.9" y="18.4" class="st1" width="3.1" height="37.4"/>
			</g>
		</g>
		<g id="XMLID_79_">
			<path id="XMLID_80_" class="st1" d="M61.7,57.3H3.6c-0.8,0-1.5-0.7-1.5-1.5V18.4c0-0.8,0.7-1.5,1.5-1.5h58.1
				c0.8,0,1.5,0.7,1.5,1.5v37.4C63.2,56.6,62.5,57.3,61.7,57.3z M4.5,55.5h56.3V19H4.5V55.5z"/>
		</g>
	</g>
</g>
</svg>
