<?xml version="1.0" encoding="utf-8"?>
<!-- Generator: Adobe Illustrator 22.0.1, SVG Export Plug-In . SVG Version: 6.00 Build 0)  -->
<svg version="1.1" id="Layer_1" xmlns="http://www.w3.org/2000/svg" xmlns:xlink="http://www.w3.org/1999/xlink" x="0px" y="0px"
	 viewBox="0 0 30 30" style="enable-background:new 0 0 30 30;" xml:space="preserve">
<style type="text/css">
	.st0{fill:#F8F9FB;}
</style>
<g id="XMLID_928_">
	<g>
		<path id="XMLID_17_" class="st0" d="M27.1,12.6L15.2,3.9c-0.2-0.2-0.5-0.2-0.8,0L2.6,12.6c-0.3,0.2-0.4,0.6-0.1,0.9
			c0.2,0.3,0.6,0.4,0.9,0.1l11.5-8.4l11.5,8.4c0.1,0.1,0.3,0.1,0.4,0.1c0.2,0,0.4-0.1,0.5-0.3C27.5,13.2,27.4,12.8,27.1,12.6z"/>
		<path id="XMLID_16_" class="st0" d="M24,13.8c-0.4,0-0.7,0.3-0.7,0.7v10.4h-5.2v-5.7c0-1.8-1.5-3.3-3.3-3.3s-3.3,1.5-3.3,3.3v5.7
			H6.4V14.4c0-0.4-0.3-0.7-0.7-0.7s-0.7,0.3-0.7,0.7v11c0,0.4,0.3,0.7,0.7,0.7h6.5c0.3,0,0.6-0.3,0.6-0.6c0,0,0,0,0-0.1v-6.3
			c0-1.1,0.9-2,2-2s2,0.9,2,2v6.3c0,0,0,0,0,0.1c0,0.3,0.3,0.6,0.6,0.6H24c0.4,0,0.7-0.3,0.7-0.7v-11C24.6,14.1,24.3,13.8,24,13.8z"
			/>
	</g>
</g>
</svg>
