<?xml version="1.0" encoding="utf-8"?>
<!-- Generator: Adobe Illustrator 22.0.1, SVG Export Plug-In . SVG Version: 6.00 Build 0)  -->
<svg version="1.1" id="Layer_1" xmlns="http://www.w3.org/2000/svg" xmlns:xlink="http://www.w3.org/1999/xlink" x="0px" y="0px"
	 viewBox="0 0 170 50" style="enable-background:new 0 0 170 50;" xml:space="preserve">
<style type="text/css">
	.st0{fill:#601045;}
	.st1{fill:#F8A23F;}
	.st2{fill:#F3793B;}
	.st3{fill:#A23A8F;}
	.st4{fill:#7B2E70;}
	.st5{fill:#5A2D6B;}
	.st6{fill:#F16528;}
</style>
<g id="XMLID_1437_">
	<g id="XMLID_1708_">
		<g id="XMLID_1709_">
			<g>
				<path id="XMLID_200_" class="st0" d="M57.4,14.4c1.2,0,2.5,0.2,3.9,0.5v2.4c-1.2-0.3-2.4-0.5-3.6-0.5c-3.4,0-4.1,1.6-4.1,6
					c0,4.4,0.8,6,4.1,6c1.2,0,2.5-0.2,3.6-0.5l0,2.4c-1.3,0.3-2.5,0.5-3.9,0.5c-5.4,0-6.6-3.1-6.6-8.4
					C50.8,17.4,52.1,14.4,57.4,14.4L57.4,14.4z"/>
				<path id="XMLID_197_" class="st0" d="M75.2,24.7c0,4.1-1.4,6.4-5.7,6.4c-4.3,0-5.7-2.3-5.7-6.4s1.4-6.4,5.7-6.4
					C73.8,18.3,75.2,20.6,75.2,24.7z M66.3,24.7c0,3.1,0.7,4.2,3.2,4.2c2.5,0,3.2-1.2,3.2-4.2c0-3.1-0.7-4.3-3.2-4.3
					C67.1,20.5,66.3,21.6,66.3,24.7z"/>
				<path id="XMLID_195_" class="st0" d="M88.7,22.4v8.5h-2.5v-8.1c0-1.7-0.7-2.3-1.9-2.3c-1.1,0-2.5,0.4-4,1.1l0,9.3h-2.5l0-12.3
					h2.2l0.1,1c1.7-0.8,3.3-1.3,4.7-1.3C87.1,18.3,88.7,19.5,88.7,22.4z"/>
				<path id="XMLID_193_" class="st0" d="M99.7,18.7l0,2.1c-1.1-0.2-2.5-0.4-3.5-0.4c-2.1,0-2.3,0.6-2.3,1.4c0,0.9,0.3,1.1,2.3,1.7
					c2.3,0.7,4.3,1.1,4.3,3.9c0,2.8-2.1,3.7-5,3.7c-1.3,0-2.6-0.2-4.1-0.5v-2.1c1.4,0.3,2.7,0.5,4,0.5c1.7,0,2.5-0.4,2.5-1.6
					c0-1-0.5-1.2-2.5-1.8c-2.9-0.9-4-1.3-4-3.7c0-2.3,1.1-3.7,4.7-3.7C97.4,18.3,98.8,18.5,99.7,18.7z"/>
				<path id="XMLID_190_" class="st0" d="M113.7,24.6c0,0.3,0,0.5-0.1,0.9l0,0v0l-8.2,0c0.1,2.6,0.9,3.5,3.4,3.5
					c1.5,0,3.2-0.3,4.4-0.9l0,2.1c-1.2,0.6-2.9,1-4.5,1c-4.4,0-5.8-2.3-5.8-6.4c0-4.1,1.4-6.5,5.6-6.5
					C113.5,18.3,113.8,21.8,113.7,24.6z M105.4,23.7l5.8,0c0-1.6-0.1-3.3-2.9-3.3C106.4,20.4,105.6,21.3,105.4,23.7z"/>
				<path id="XMLID_187_" class="st0" d="M119.3,32.4c0,2.5-1.6,3.3-3.8,3.3c-0.2,0-0.5,0-0.8,0v-2.1c0.2,0,0.2,0,0.3,0
					c1.3,0,1.8-0.5,1.8-1.6V18.6h2.5V32.4z M119.4,16.9h-2.7l0-2.6h2.7L119.4,16.9z"/>
				<path id="XMLID_184_" class="st0" d="M133.4,24.6c0,0.3,0,0.5-0.1,0.9l0,0v0l-8.2,0c0.1,2.6,0.9,3.5,3.4,3.5
					c1.5,0,3.2-0.3,4.4-0.9l0,2.1c-1.2,0.6-2.9,1-4.5,1c-4.4,0-5.8-2.3-5.8-6.4c0-4.1,1.4-6.5,5.6-6.5
					C133.1,18.3,133.5,21.8,133.4,24.6z M125.1,23.7l5.8,0c0-1.6-0.1-3.3-2.9-3.3C126,20.4,125.3,21.3,125.1,23.7z"/>
				<path id="XMLID_182_" class="st0" d="M143.6,20.4c-1.2,0-2.5,0.4-4.8,1.6l0,8.8h-2.5l0-12.3h2.2l0.2,1.3
					c2.1-1.1,3.5-1.6,4.9-1.6V20.4z"/>
				<path id="XMLID_179_" class="st0" d="M156.2,24.7c0,4.1-1.4,6.4-5.7,6.4c-4.3,0-5.7-2.3-5.7-6.4s1.4-6.4,5.7-6.4
					C154.8,18.3,156.2,20.6,156.2,24.7z M147.3,24.7c0,3.1,0.7,4.2,3.2,4.2c2.5,0,3.2-1.2,3.2-4.2c0-3.1-0.7-4.3-3.2-4.3
					C148,20.5,147.3,21.6,147.3,24.7z"/>
				<path id="XMLID_177_" class="st0" d="M166.5,18.7v2.1c-1.1-0.2-2.5-0.4-3.5-0.4c-2.1,0-2.3,0.6-2.3,1.4c0,0.9,0.3,1.1,2.3,1.7
					c2.3,0.7,4.3,1.1,4.3,3.9c0,2.8-2.1,3.7-5,3.7c-1.3,0-2.6-0.2-4.1-0.5v-2.1c1.4,0.3,2.7,0.5,4,0.5c1.7,0,2.5-0.4,2.5-1.6
					c0-1-0.5-1.2-2.5-1.8c-2.9-0.9-4-1.3-4-3.7c0-2.3,1.1-3.7,4.7-3.7C164.2,18.3,165.5,18.5,166.5,18.7z"/>
			</g>
		</g>
	</g>
	<g id="XMLID_1704_">
		<g id="XMLID_1705_">
			<polygon id="XMLID_1707_" class="st1" points="38.5,13.7 23.3,4.9 13,10.8 28.1,19.6 			"/>
		</g>
	</g>
	<g id="XMLID_1700_">
		<g id="XMLID_1701_">
			<polygon id="XMLID_1702_" class="st2" points="38.5,13.7 38.5,31.2 28.1,37.2 28.1,19.6 			"/>
		</g>
	</g>
	<g id="XMLID_1697_">
		<g id="XMLID_1698_">
			<polygon id="XMLID_1699_" class="st3" points="2.7,34.3 17.8,43.1 28.1,37.2 13,28.3 			"/>
		</g>
	</g>
	<g id="XMLID_1694_">
		<g id="XMLID_1695_">
			<polygon id="XMLID_1696_" class="st4" points="2.7,34.3 2.7,16.8 13,10.8 13,28.3 			"/>
		</g>
	</g>
	<polygon id="XMLID_1693_" class="st5" points="13,28.3 2.7,22.3 2.7,34.3 	"/>
	<polygon id="XMLID_1692_" class="st6" points="28.1,19.6 38.5,25.6 38.5,13.7 	"/>
	<g id="XMLID_1438_">
		<path id="XMLID_1690_" class="st0" d="M67.4,41.2v0.4c-0.3-0.1-0.6-0.1-0.8-0.1c-0.9,0-1.1,0.4-1.1,1.5c0,1.1,0.2,1.5,1.1,1.5
			c0.3,0,0.6,0,0.9-0.1l0,0.4c-0.3,0.1-0.6,0.1-0.9,0.1c-1.2,0-1.5-0.7-1.5-1.9c0-1.2,0.3-1.9,1.5-1.9
			C66.8,41.1,67.1,41.1,67.4,41.2z"/>
		<path id="XMLID_1687_" class="st0" d="M72.2,43c0,1.2-0.3,1.9-1.5,1.9s-1.5-0.7-1.5-1.9c0-1.2,0.3-1.9,1.5-1.9S72.2,41.8,72.2,43z
			 M69.7,43c0,1.1,0.2,1.5,1,1.5c0.9,0,1-0.4,1-1.5c0-1.1-0.2-1.5-1-1.5C69.9,41.5,69.7,41.9,69.7,43z"/>
		<path id="XMLID_1653_" class="st0" d="M75.4,43.3h-0.7v1.6h-0.4l0-3.8h0.4v0h0.9c0.8,0,1.3,0.3,1.3,1.1c0,0.7-0.3,1-0.9,1l0.9,1.6
			l-0.5,0L75.4,43.3z M74.7,42.9h0.8c0.6,0,0.8-0.1,0.8-0.7c0-0.6-0.2-0.7-0.8-0.7h-0.8V42.9z"/>
		<path id="XMLID_1628_" class="st0" d="M79.9,43.3h-0.7v1.6h-0.4l0-3.8h0.4v0H80c0.8,0,1.3,0.3,1.3,1.1c0,0.7-0.3,1-0.9,1l0.9,1.6
			l-0.5,0L79.9,43.3z M79.2,42.9H80c0.6,0,0.8-0.1,0.8-0.7c0-0.6-0.2-0.7-0.8-0.7h-0.8V42.9z"/>
		<path id="XMLID_1625_" class="st0" d="M83.7,41.5v1.3l1.6,0v0.4l-1.6,0v1.4l1.7,0v0.4l-1.7,0v0h-0.4l0-3.8h0.3l1.8,0v0.4
			L83.7,41.5z"/>
		<path id="XMLID_1598_" class="st0" d="M90.1,43c0,1.2-0.3,1.9-1.5,1.9h-0.8h-0.4l0-3.8h0h1.3C89.9,41.2,90.1,41.8,90.1,43z
			 M89.7,43c0-1.1-0.2-1.5-1.1-1.5h-0.8v3l0.8,0C89.5,44.6,89.7,44.2,89.7,43z"/>
		<path id="XMLID_1595_" class="st0" d="M95.1,43c0,1.2-0.3,1.9-1.5,1.9c-1.2,0-1.5-0.7-1.5-1.9c0-1.2,0.3-1.9,1.5-1.9
			C94.8,41.1,95.1,41.8,95.1,43z M92.5,43c0,1.1,0.2,1.5,1,1.5c0.9,0,1-0.4,1-1.5c0-1.1-0.2-1.5-1-1.5C92.7,41.5,92.5,41.9,92.5,43z
			"/>
		<path id="XMLID_1592_" class="st0" d="M98.3,43.3h-0.7v1.6h-0.4l0-3.8h0.4v0h0.9c0.8,0,1.3,0.3,1.3,1.1c0,0.7-0.3,1-0.9,1l0.9,1.6
			l-0.5,0L98.3,43.3z M97.6,42.9h0.8c0.6,0,0.8-0.1,0.8-0.7c0-0.6-0.2-0.7-0.8-0.7h-0.8V42.9z"/>
		<path id="XMLID_1588_" class="st0" d="M102.1,41.5v1.3l1.6,0v0.4l-1.6,0v1.4l1.7,0v0.4l-1.7,0v0h-0.4v-3.8h0.3l1.8,0v0.4
			L102.1,41.5z"/>
		<path id="XMLID_1586_" class="st0" d="M107.8,41.2v0.4c-0.3-0.1-0.6-0.1-1-0.1c-0.7,0-0.8,0.2-0.8,0.6c0,0.4,0.1,0.4,0.8,0.7
			c0.8,0.3,1.1,0.4,1.1,1.1c0,0.8-0.5,1.1-1.3,1.1c-0.4,0-0.7-0.1-1.1-0.1v-0.4c0.4,0.1,0.7,0.1,1.1,0.1c0.6,0,0.9-0.2,0.9-0.7
			c0-0.4-0.2-0.5-0.8-0.7c-0.8-0.3-1.1-0.4-1.1-1c0-0.6,0.3-1.1,1.3-1.1C107.1,41.1,107.5,41.1,107.8,41.2z"/>
		<path id="XMLID_1567_" class="st0" d="M115.1,43c0,1.2-0.3,1.9-1.5,1.9h-0.8h-0.4v-3.8h0h1.3C114.8,41.2,115.1,41.8,115.1,43z
			 M114.7,43c0-1.1-0.2-1.5-1.1-1.5h-0.8v3l0.8,0C114.5,44.6,114.7,44.2,114.7,43z"/>
		<path id="XMLID_1562_" class="st0" d="M117.6,41.5v1.3l1.6,0v0.4l-1.6,0v1.4l1.7,0v0.4l-1.7,0v0h-0.4v-3.8h0.3l1.8,0v0.4
			L117.6,41.5z"/>
		<path id="XMLID_1551_" class="st0" d="M125.8,41.2v0.4c-0.3-0.1-0.6-0.1-1-0.1c-0.7,0-0.8,0.2-0.8,0.6c0,0.4,0.1,0.4,0.8,0.7
			c0.8,0.3,1.1,0.4,1.1,1.1c0,0.8-0.5,1.1-1.3,1.1c-0.4,0-0.7-0.1-1.1-0.1v-0.4c0.4,0.1,0.7,0.1,1.1,0.1c0.6,0,0.9-0.2,0.9-0.7
			c0-0.4-0.2-0.5-0.8-0.7c-0.8-0.3-1.1-0.4-1.1-1c0-0.6,0.3-1.1,1.3-1.1C125.1,41.1,125.5,41.1,125.8,41.2z"/>
		<path id="XMLID_1526_" class="st0" d="M128.3,41.5v1.3l1.6,0v0.4l-1.6,0v1.4l1.7,0v0.4l-1.7,0v0h-0.4v-3.8h0.3l1.8,0v0.4
			L128.3,41.5z"/>
		<path id="XMLID_1514_" class="st0" d="M133.4,45c-1.2,0-1.5-0.7-1.5-2c0-1.2,0.3-1.9,1.5-1.9c0.3,0,0.7,0,1,0.1v0.4
			c-0.3-0.1-0.7-0.1-1-0.1c-0.9,0-1.1,0.4-1.1,1.5c0,1.1,0.2,1.6,1.1,1.6c0.8,0,0.8-0.3,0.8-1.2v-0.1h-0.7v-0.4l1.2,0v0.5
			C134.6,44.4,134.4,45,133.4,45z"/>
		<path id="XMLID_1511_" class="st0" d="M139.3,43.5c0,0.9-0.2,1.4-1.3,1.4c-1.1,0-1.3-0.5-1.3-1.4v-2.4h0.4v2.4c0,0.8,0.2,1,0.9,1
			c0.7,0,0.9-0.3,0.9-1v-2.4h0.4V43.5z"/>
		<path id="XMLID_1489_" class="st0" d="M142.5,43.3h-0.7v1.6h-0.4v-3.8h0.4v0h0.9c0.8,0,1.3,0.3,1.3,1.1c0,0.7-0.3,1-0.9,1l0.9,1.6
			l-0.5,0L142.5,43.3z M141.8,42.9h0.8c0.6,0,0.8-0.1,0.8-0.7c0-0.6-0.2-0.7-0.8-0.7h-0.8V42.9z"/>
		<path id="XMLID_1444_" class="st0" d="M148.8,43c0,1.2-0.3,1.9-1.5,1.9c-1.2,0-1.5-0.7-1.5-1.9c0-1.2,0.3-1.9,1.5-1.9
			C148.5,41.1,148.8,41.8,148.8,43z M146.3,43c0,1.1,0.2,1.5,1,1.5c0.9,0,1-0.4,1-1.5c0-1.1-0.2-1.5-1-1.5
			C146.4,41.5,146.3,41.9,146.3,43z"/>
		<path id="XMLID_1439_" class="st0" d="M152.9,41.2l0,0.4c-0.3-0.1-0.6-0.1-1-0.1c-0.7,0-0.8,0.2-0.8,0.6c0,0.4,0.1,0.4,0.8,0.7
			c0.8,0.3,1.1,0.4,1.1,1.1c0,0.8-0.5,1.1-1.3,1.1c-0.4,0-0.7-0.1-1.1-0.1v-0.4c0.4,0.1,0.7,0.1,1.1,0.1c0.6,0,0.9-0.2,0.9-0.7
			c0-0.4-0.2-0.5-0.8-0.7c-0.8-0.3-1.1-0.4-1.1-1c0-0.6,0.3-1.1,1.3-1.1C152.2,41.1,152.6,41.1,152.9,41.2z"/>
	</g>
</g>
</svg>
