<?xml version="1.0" encoding="utf-8"?>
<!-- Generator: Adobe Illustrator 19.0.0, SVG Export Plug-In . SVG Version: 6.00 Build 0)  -->
<svg version="1.1" id="Capa_1" xmlns="http://www.w3.org/2000/svg" xmlns:xlink="http://www.w3.org/1999/xlink" x="0px" y="0px"
	 viewBox="0 0 216 192" style="enable-background:new 0 0 216 192;" xml:space="preserve">
<style type="text/css">
	.st0{fill-rule:evenodd;clip-rule:evenodd;fill:#C85728;}
	.st1{fill:#FFFFFF;}
</style>
<rect id="XMLID_151_" class="st0" width="216" height="192"/>
<g id="XMLID_178_">
	<g id="XMLID_222_">
		<path id="XMLID_223_" class="st1" d="M158.3,138.3c10.1,0.2,19,0,26.7-0.5l2.6-15.4c-42.1,6.7-80.1,6.8-114.1,0.2
			c-12-2.3-22.8-5.4-32.6-9.1c-7.1-2.7-12.5-5.4-16.2-8c20.1,15.3,50.2,25.3,90.4,30.1C128.9,137.1,143.3,138,158.3,138.3z"/>
	</g>
	<g id="XMLID_179_">
		<path id="XMLID_220_" class="st1" d="M191.9,81.6c-0.4-1.4-1.4-2.1-3.2-2.1c-2.9,0-4.6,0-5.3,0c-1.9,0.1-3.3,0.3-4.4,0.7l-1.9,3.4
			l2.7-1c2-0.6,3.7-0.9,5-0.7c1.5,0.1,2.4,0.6,2.4,1.5c0,0.8-0.7,1.7-2.2,2.4c-0.6,0.3-1.4,0.6-2.4,0.8c-1.2,0.2-2.1,0.3-2.7,0.4
			c-2.3,0.3-4.3,1.2-5.8,2.5c-0.8,0.7-1.3,1.4-1.7,2.3c-0.5,1-0.6,1.8-0.4,2.6c0.5,2,3,2.9,7.4,2.5l2.3-2.6
			c-0.8,0.3-1.6,0.4-2.4,0.4c-1.6,0.1-2.4-0.5-2.5-1.5c0-1.1,0.5-2,1.5-2.6c0.6-0.3,1.7-0.7,3.3-1.2c1.5-0.5,2.9-0.9,4.1-1.2
			l-1.4,3.9c-1.1,2.7-1.8,4.1-2.3,4.4h5.1c2-5.1,3.5-8.6,4.3-10.5C192.1,84.2,192.3,82.7,191.9,81.6z"/>
		<path id="XMLID_218_" class="st1" d="M162,79.5h-4.9c0.3,11.4,0.6,17,0.8,16.9c0.1-0.1,1-0.1,2.7-0.1c0.9,0,1.7,0,2.6,0.1
			l13.2-16.9h-4.9L162,92.6V79.5z"/>
		<path id="XMLID_216_" class="st1" d="M157.3,77l1.3-3.2h-5l-1.1,3.2H157.3z"/>
		<path id="XMLID_214_" class="st1" d="M137,77l1.3-3.2h-5l-1.1,3.2H137z"/>
		<path id="XMLID_212_" class="st1" d="M140.9,79.5h-2.6l-1.4,3.6h2.5l-0.8,2c-0.6,1.6-1.1,2.9-1.5,3.9c-0.9,2.2-1.4,3.5-1.5,4
			c-0.4,1.5-0.2,2.6,0.6,3.2c0.6,0.5,1.9,0.6,4,0.5c1.1-0.1,2-0.3,2.9-0.5l1.8-3.2c-0.7,0.3-1.6,0.6-2.7,0.7
			c-0.8,0.1-1.2-0.4-1.3-1.5c-0.1-1,0.1-2.1,0.6-3.4c0.3-0.9,0.9-2.2,1.5-3.7l0.9-2h4.5l1.2-3.5h-4.5l1.5-3.8l-4.9,1.1L140.9,79.5z"
			/>
		<path id="XMLID_210_" class="st1" d="M127.2,81.2l0.2-1.2c-0.4-0.1-0.9-0.2-1.5-0.3c-1.2-0.2-2.4-0.2-3.7-0.2
			c-1.6,0-3,0.3-4.2,0.9c-1.5,0.7-2.6,1.8-3.2,3.3c-0.5,1.2-0.4,2.4,0.4,3.7c0.4,0.6,1.4,1.7,3,3c0.7,0.6,0.8,1.4,0.3,2.3
			c-0.5,1-1.4,1.5-2.6,1.6c-1.4,0.1-2.6-0.1-3.6-0.6l-1.2-0.7l-0.8,3.2l1.8,0.5c1.4,0.3,2.6,0.5,3.5,0.4c1.9-0.1,3.5-0.5,4.8-1.1
			c2.1-0.9,3.2-2.3,3.5-4.3c0.2-1.5-0.5-3-2.1-4.3c-0.9-0.7-1.4-1.2-1.6-1.4c-0.5-0.6-0.6-1.1-0.4-1.7c0.3-1.2,1.4-1.8,3.2-1.8
			c1.7,0,2.8,0.3,3.5,1.1C126.9,82.9,127.1,82.1,127.2,81.2z"/>
		<path id="XMLID_208_" class="st1" d="M131,79.5c-0.1,0.9-0.9,3.4-2.4,7.5c-1.6,4.4-2.9,7.6-3.8,9.4h5l6.2-16.9H131z"/>
		<path id="XMLID_206_" class="st1" d="M156.4,79.5h-5c-0.1,0.9-0.9,3.4-2.4,7.5c-1.6,4.4-2.9,7.6-3.8,9.4h5L156.4,79.5z"/>
		<path id="XMLID_203_" class="st1" d="M105.2,79.5c-2.3,0-4.2,0.3-5.7,0.9c-2,0.8-3.7,2.2-5.3,4.3c-2.2,2.8-3,5.5-2.6,8.1
			c0.5,3,2.8,4.4,6.8,4.4c4.1,0,7.3-1.4,9.9-4.1c2.1-2.3,3.2-4.8,3.3-7.6C111.7,81.4,109.5,79.5,105.2,79.5z M100.8,83.2
			c0.9-0.4,2-0.6,3.2-0.6c1.1,0,1.9,0.3,2.4,0.9c0.5,0.6,0.7,1.7,0.6,3.1c-0.2,1.8-0.9,3.4-2.2,5c-1.6,1.8-3.4,2.7-5.5,2.7
			c-2,0-3.1-1-3.2-3c-0.2-1.8,0.4-3.5,1.6-5.3C98.5,84.6,99.6,83.7,100.8,83.2z"/>
		<path id="XMLID_201_" class="st1" d="M78.9,73.8c-0.1,1-1.5,5-4.3,12.2c-1.4,3.6-2.7,7-4,10.4h5.3c0-0.3,0.8-2.7,2.5-7.5
			c1.9-5.3,3-9.1,3.6-11.4l4.9,0.1c1.2,0,2,0.3,2.3,0.9c0.2,0.5,0.2,1.2-0.2,2.1c-0.5,1-1.2,1.9-2.2,2.5c-1,0.6-1.9,0.9-2.9,0.9
			h-2.6l-0.4,3l1.2,0.2c1,0.1,2.1,0.2,3.3,0.2c2.2,0,4.2-1.1,6.1-3.2c1.5-1.7,2.4-3.3,2.9-5c0.3-1.3,0.1-2.5-0.7-3.6
			c-0.8-1.2-2-1.7-3.4-1.7H78.9z"/>
		<path id="XMLID_199_" class="st1" d="M35.2,82.3c1.1-2.9,2-5.8,3-8.5h-5.4c-1.7,5.1-3.7,10.4-6,15.9c-1.1,2.7-2.1,5-2.9,6.7h16.6
			L42,93H31.1C31.7,91.8,33.1,88.3,35.2,82.3z"/>
		<path id="XMLID_197_" class="st1" d="M54.7,79.5c-1.9,0.1-3.4,0.3-4.4,0.7l-1.9,3.4l2.6-1c2.1-0.6,3.8-0.9,5.1-0.7
			c1.6,0.1,2.4,0.6,2.4,1.5c0,0.8-0.7,1.7-2.1,2.4c-0.7,0.3-1.5,0.6-2.5,0.8c-1.2,0.2-2.1,0.3-2.7,0.4c-2.4,0.3-4.3,1.2-5.9,2.5
			c-0.8,0.7-1.3,1.4-1.7,2.3c-0.5,1-0.6,1.8-0.4,2.6c0.5,2,3,2.9,7.4,2.5l2.3-2.6c-0.8,0.3-1.6,0.4-2.4,0.4C48.9,94.5,48,94,48,93
			c0-1.1,0.5-2,1.6-2.6c0.5-0.3,1.6-0.7,3.3-1.2c1.5-0.5,2.9-0.9,4.1-1.2l-1.5,3.9c-1.1,2.7-1.8,4.1-2.3,4.4h5
			c2.1-5.1,3.5-8.6,4.3-10.5c0.7-1.7,0.9-3.1,0.5-4.3c-0.4-1.4-1.4-2.1-3.2-2.1C57.2,79.5,55.4,79.5,54.7,79.5z"/>
		<path id="XMLID_194_" class="st1" d="M147.2,108.8c0.4-0.8,0.8-1.5,1.1-2.1c-1-0.1-2.3-0.2-3.7-0.2c-2.2,0-4.3,0.9-6.1,3
			c-1,1.1-1.4,2.3-1.2,3.5c0.1,1.2,0.6,1.8,1.6,1.8c1.8,0,3.2-0.5,4.4-1.6c-0.8,1.7-1.5,2.8-2.1,3.2c-0.4,0.3-1.2,0.5-2.4,0.5
			c-0.8,0-1.5-0.1-2.1-0.3l-0.7-0.3l-0.3,1.3l0.7,0.3c0.6,0.2,1.3,0.3,2.1,0.3c0.9,0,1.6,0,2-0.1c0.7-0.1,1.4-0.4,2.1-0.9
			c0.7-0.5,1.3-1.2,1.9-2.4c0.5-1.4,0.9-2.3,1.1-2.8C145.9,111.4,146.4,110.3,147.2,108.8z M143.9,108c0.5,0,0.9,0,1.4,0.1
			c-0.6,1.4-1.1,2.7-1.8,3.7c-0.5,0.7-1.3,1.1-2.3,1.2c-1,0.1-1.6-0.2-1.8-0.8c-0.2-0.5,0-1.2,0.5-2c0.5-0.7,1-1.2,1.7-1.7
			C142.1,108.2,142.9,108,143.9,108z"/>
		<path id="XMLID_192_" class="st1" d="M153.1,106.5h-2.6c-0.6,1.7-1.4,3.3-2.2,4.9c-0.6,1.1-0.7,2-0.3,2.6c0.4,0.6,1.1,0.9,2.3,0.9
			c0.9,0,1.8-0.3,2.7-0.9c0.4-0.3,0.8-0.6,1.1-0.9l-0.6,1.6l2.4,0c0.1-1.3,0.3-2.4,0.6-3.3c0.2-0.6,0.6-1.5,1.4-2.9
			c0.4-0.7,0.8-1.3,1.1-1.9h-2.3l-0.1,0.7c-0.2,0.6-0.5,1.4-1,2.3c-0.8,1.4-1.2,2.3-1.4,2.4c-0.6,0.8-1.4,1.2-2.4,1.2
			c-0.7,0-1.1-0.3-1.2-0.8c-0.1-0.4,0-1.1,0.3-1.9c0.2-0.6,0.7-1.5,1.4-2.6C152.5,107.4,152.8,106.9,153.1,106.5z"/>
		<path id="XMLID_189_" class="st1" d="M133.9,106.3c-2.3,0-4,0.9-5.3,2.7c-0.6,0.8-0.9,1.5-1.1,2.3c-0.2,0.8-0.1,1.4,0.2,2
			c0.4,0.8,1.1,1.2,2.1,1.4c0.7,0.1,1.8,0.1,3.4-0.1l1.3-1.6c-0.6,0.2-1.3,0.2-2,0.3c-1.4,0.1-2.3,0-2.6-0.5
			c-0.3-0.4-0.4-0.9-0.2-1.6l0.4-0.9l6.2,0.1c0.3-0.7,0.5-1.4,0.5-2.1C136.8,107,135.8,106.3,133.9,106.3z M131.4,108.6
			c0.8-0.6,1.7-0.9,2.4-0.9s1.1,0.3,1.2,0.9c0.1,0.3,0,0.6-0.1,0.9l-4.5,0L131.4,108.6z"/>
		<path id="XMLID_187_" class="st1" d="M127.8,105.8l0.8-1.9c-0.8-0.2-1.7-0.3-2.7-0.2c-1.9,0.1-3.2,0.7-4,1.9
			c-0.6,0.9-0.8,1.7-0.6,2.3c0.2,0.5,0.7,1.1,1.5,1.7c0.7,0.6,1.1,1.2,1,1.9c0,0.9-0.7,1.4-2.1,1.6c-0.9,0.1-1.6,0.1-2.3-0.2
			l-0.8-0.4l-0.8,1.8l1.5,0.3c1.2,0.2,2.2,0.2,3.1,0.1c1-0.2,1.8-0.6,2.4-1.2c0.6-0.6,1-1.4,1.1-2.4c0.1-0.6-0.4-1.4-1.4-2.3
			c-0.9-0.9-1.3-1.6-1.1-2.3c0.3-0.8,1-1.2,2.1-1.2C126.6,105.3,127.4,105.4,127.8,105.8z"/>
		<path id="XMLID_185_" class="st1" d="M181,107.8c0.7,0.1,1.2,0.3,1.6,0.5l0.7-1.6c-0.7-0.2-1.5-0.4-2.4-0.4
			c-1.7-0.1-2.9,0.4-3.5,1.4c-0.5,0.8-0.6,1.4-0.4,1.9c0.1,0.3,0.5,0.7,1,1.2c0.6,0.5,0.8,1,0.8,1.4c0,0.6-0.6,0.9-1.7,1.1
			c-0.7,0.2-1.3,0.1-1.8-0.2l-0.6-0.4l-0.6,1.5l1.3,0.2c1,0.2,1.8,0.2,2.6,0c0.9-0.2,1.5-0.5,2-0.9c0.5-0.4,0.8-1.1,0.9-1.8
			c0.1-0.5-0.2-1.1-0.9-1.7c-0.6-0.6-0.8-1.1-0.6-1.7C179.6,107.9,180.1,107.7,181,107.8z"/>
		<path id="XMLID_183_" class="st1" d="M163.3,106.5H161c-0.1,0.8-0.4,1.7-0.9,2.7c-0.3,0.6-0.8,1.4-1.4,2.7c-0.6,1.3-1,2.1-1.2,2.5
			h2.6c0.1-0.9,0.3-1.6,0.5-2.2c0.2-0.6,0.6-1.3,1-2c0.6-0.9,1.1-1.5,1.6-1.8c0.5-0.2,1-0.3,1.7-0.2c0.3,0,0.6,0.1,0.8,0.2l0.7-2.1
			c-0.4,0-0.8,0-1.4,0.2c-1,0.2-1.8,0.7-2.3,1.4L163.3,106.5z"/>
		<path id="XMLID_180_" class="st1" d="M168.9,106.8c-0.8,0.3-1.5,0.9-2.5,1.8c-1.2,1.2-1.7,2.5-1.5,3.9c0.2,1.5,1.1,2.2,2.8,2.2
			c1.3,0,2.4-0.3,3.4-0.9c0.9-0.5,1.7-1.4,2.5-2.6c0.8-1.2,1-2.3,0.6-3.3c-0.4-1-1.2-1.5-2.5-1.5
			C170.6,106.4,169.7,106.5,168.9,106.8z M168.1,109.3c0.6-0.6,1.2-1.1,1.7-1.3c0.3-0.1,0.9-0.2,1.7-0.2c0.5,0,0.8,0.3,0.9,1
			c0.1,0.7,0,1.4-0.4,2c-0.9,1.7-2.1,2.5-3.5,2.5c-1,0-1.5-0.5-1.5-1.5C167,110.9,167.4,110.1,168.1,109.3z"/>
	</g>
</g>
</svg>
