<?xml version="1.0" encoding="utf-8"?>
<!-- Generator: Adobe Illustrator 22.0.1, SVG Export Plug-In . SVG Version: 6.00 Build 0)  -->
<svg version="1.1" id="Layer_1" xmlns="http://www.w3.org/2000/svg" xmlns:xlink="http://www.w3.org/1999/xlink" x="0px" y="0px"
	 viewBox="0 0 914 222.7" style="enable-background:new 0 0 914 222.7;" xml:space="preserve">
<style type="text/css">
	.st0{fill:#601045;}
	.st1{fill:#F8A23F;}
	.st2{fill:#F3793B;}
	.st3{fill:#A23A8F;}
	.st4{fill:#7B2E70;}
	.st5{fill:#5A2D6B;}
	.st6{fill:#F16528;}
</style>
<g id="XMLID_518_">
	<g id="XMLID_519_">
		<g id="XMLID_522_">
			<g>
				<path id="XMLID_200_" class="st0" d="M304,52.6c6.9,0,14,0.9,21.6,2.7v13.2c-6.9-1.7-13.4-2.7-19.9-2.7c-18.8,0.1-23,9-23,33.3
					c0,24.3,4.2,33.3,22.8,33.3c6.6,0,13.7-1.1,20.1-2.7l0,13.2c-7,1.6-14,2.6-21.6,2.6c-30,0-36.8-17.1-36.8-46.5
					C267.2,69.3,274.3,52.6,304,52.6L304,52.6z"/>
				<path id="XMLID_197_" class="st0" d="M402.9,110c0,22.6-7.6,35.6-31.7,35.6c-24.1,0-31.7-13-31.7-35.6s7.6-35.6,31.7-35.6
					C395.3,74.4,402.9,87.4,402.9,110z M353.5,110c0,17,4,23.6,17.7,23.6c13.6,0,17.7-6.6,17.7-23.6c0-17-4-23.6-17.7-23.6
					C357.5,86.4,353.5,93,353.5,110z"/>
				<path id="XMLID_195_" class="st0" d="M477.6,97v47H464V98.9c0-9.7-3.8-12.6-10.4-12.6c-5.8,0-13.8,2.2-22.2,6l0,51.7h-13.6
					l0-68.1H430l0.7,5.5c9.3-4.3,18.6-7,26.4-7C469.1,74.4,477.6,80.9,477.6,97z"/>
				<path id="XMLID_193_" class="st0" d="M539,76.5l0,11.6c-6.3-1.3-13.6-2.2-19.6-2.2c-11.5,0-12.9,3.2-13,8c0,5,1.6,6,12.5,9.3
					c13,3.9,24.1,6.3,24.1,21.6c0,15.7-11.7,20.7-27.8,20.7c-7.3,0-14.6-1-22.6-2.8v-11.8c7.7,1.7,14.9,2.9,22.2,2.9
					c9.6,0,13.9-2.1,13.9-9c0-5.8-3-6.6-13.6-9.9c-16-5-22.5-7.4-22.5-20.4c0-12.7,6.1-20.4,26.1-20.4
					C526.3,74.3,533.7,75.4,539,76.5z"/>
				<path id="XMLID_190_" class="st0" d="M616.6,109.3c0,1.9-0.2,2.8-0.3,5.2l0,0v0l-45.6,0c0.7,14.6,5.2,19.3,18.7,19.3
					c8.1,0,17.7-1.6,24.4-5l0,11.5c-6.5,3.5-15.8,5.3-25.3,5.3c-24.4,0-32-12.6-32-35.3c0-22.7,7.6-35.9,30.9-35.9
					C615.4,74.4,617.5,93.7,616.6,109.3z M570.8,104.4l32.1,0c0.3-8.7-0.8-18.2-15.9-18.2C576.1,86.1,571.7,91.3,570.8,104.4z"/>
				<path id="XMLID_187_" class="st0" d="M647.9,152.6c0,13.9-8.9,18.4-20.9,18.4c-1.2,0-2.8-0.1-4.4-0.2v-11.5c0.9,0,1.2,0,1.8,0
					c7.5,0,9.9-3.1,9.9-9.1V75.9h13.6V152.6z M648.5,66.7h-14.9l0-14.3h15L648.5,66.7z"/>
				<path id="XMLID_184_" class="st0" d="M725.9,109.3c0,1.9-0.2,2.8-0.3,5.2l0,0v0l-45.6,0c0.7,14.6,5.2,19.3,18.7,19.3
					c8.1,0,17.7-1.6,24.4-5l0,11.5c-6.5,3.5-15.8,5.3-25.3,5.3c-24.4,0-32-12.6-32-35.3c0-22.7,7.6-35.9,30.9-35.9
					C724.7,74.4,726.7,93.7,725.9,109.3z M680,104.4l32.1,0c0.3-8.7-0.8-18.2-15.9-18.2C685.3,86.1,680.9,91.3,680,104.4z"/>
				<path id="XMLID_182_" class="st0" d="M782.6,86c-6.7,0-13.8,2.3-26.7,9.1l0,49h-13.6l0-68.1h12.3l0.9,7.2
					c11.7-6.1,19.5-8.8,27.3-8.8V86z"/>
				<path id="XMLID_179_" class="st0" d="M852.7,110c0,22.6-7.6,35.6-31.7,35.6c-24.1,0-31.7-13-31.7-35.6s7.6-35.6,31.7-35.6
					C845.1,74.4,852.7,87.4,852.7,110z M803.3,110c0,17,4,23.6,17.7,23.6c13.6,0,17.7-6.6,17.7-23.6c0-17-4-23.6-17.7-23.6
					C807.4,86.4,803.3,93,803.3,110z"/>
				<path id="XMLID_177_" class="st0" d="M910,76.5v11.6c-6.3-1.3-13.6-2.2-19.6-2.2c-11.5,0-12.9,3.2-13,8c0,5,1.6,6,12.5,9.3
					c13,3.9,24.1,6.3,24.1,21.6c0,15.7-11.7,20.7-27.8,20.7c-7.3,0-14.6-1-22.6-2.8v-11.8c7.7,1.7,14.9,2.9,22.2,2.9
					c9.6,0,13.9-2.1,13.9-9c0-5.8-3-6.6-13.6-9.9c-16-5-22.5-7.4-22.5-20.4c0-12.7,6.1-20.4,26.1-20.4
					C897.3,74.3,904.7,75.4,910,76.5z"/>
			</g>
		</g>
	</g>
	<g id="XMLID_564_">
		<g id="XMLID_566_">
			<polygon id="XMLID_568_" class="st1" points="198.7,48.9 114.6,0 57.3,32.9 141.4,81.9 			"/>
		</g>
	</g>
	<g id="XMLID_570_">
		<g id="XMLID_571_">
			<polygon id="XMLID_572_" class="st2" points="198.7,48.9 198.7,146.2 141.4,179.2 141.4,81.9 			"/>
		</g>
	</g>
	<g id="XMLID_574_">
		<g id="XMLID_577_">
			<polygon id="XMLID_579_" class="st3" points="0,163.2 84.1,212.1 141.4,179.2 57.3,130.2 			"/>
		</g>
	</g>
	<g id="XMLID_582_">
		<g id="XMLID_583_">
			<polygon id="XMLID_584_" class="st4" points="0,163.2 0,65.9 57.3,32.9 57.3,130.2 			"/>
		</g>
	</g>
	<polygon id="XMLID_585_" class="st5" points="57.3,130.2 0,96.9 0,163.2 	"/>
	<polygon id="XMLID_586_" class="st6" points="141.4,81.9 198.7,115.2 198.7,48.9 	"/>
	<g id="XMLID_587_">
		<path id="XMLID_588_" class="st0" d="M359.6,201.7v2.2c-1.6-0.4-3.1-0.6-4.7-0.6c-4.8,0-5.9,2.3-5.9,8.6c0,6.3,1.1,8.6,5.8,8.6
			c1.6,0,3.3-0.3,4.8-0.6l0,2.2c-1.6,0.4-3.2,0.6-4.9,0.6c-6.7,0-8.3-4-8.3-10.8c0-6.9,1.6-10.8,8.3-10.8
			C356.3,201.1,357.9,201.3,359.6,201.7z"/>
		<path id="XMLID_590_" class="st0" d="M386.2,211.9c0,6.9-1.5,10.8-8.3,10.8s-8.3-3.9-8.3-10.8c0-6.9,1.5-10.8,8.3-10.8
			S386.2,205,386.2,211.9z M372.1,211.9c0,6.2,1.1,8.6,5.8,8.6c4.8,0,5.8-2.4,5.8-8.6c0-6.2-1.1-8.6-5.8-8.6
			C373.1,203.3,372.1,205.7,372.1,211.9z"/>
		<path id="XMLID_597_" class="st0" d="M404,213.3H400v8.9h-2.4l0-20.8h2v0h5c4.7,0,7.1,1.5,7.1,6c0,3.7-1.7,5.4-5,5.8l5.3,9.1
			l-2.8,0L404,213.3z M400,211.4h4.5c3.5,0,4.6-0.8,4.6-4c0-3.1-1.1-4-4.6-4H400V211.4z"/>
		<path id="XMLID_609_" class="st0" d="M429.2,213.3h-4.1v8.9h-2.4l0-20.8h2v0h5c4.7,0,7.1,1.5,7.1,6c0,3.7-1.7,5.4-5,5.8l5.3,9.1
			l-2.8,0L429.2,213.3z M425.1,211.4h4.5c3.5,0,4.6-0.8,4.6-4c0-3.1-1.1-4-4.6-4h-4.5V211.4z"/>
		<path id="XMLID_612_" class="st0" d="M450.3,203.4v7.2l9.1,0v2l-9.1,0v7.7l9.6,0v2l-9.6,0v0h-2.4l0-20.9h1.8l10.2,0v2L450.3,203.4
			z"/>
		<path id="XMLID_614_" class="st0" d="M485.8,211.9c0,6.9-1.5,10.4-8.3,10.4h-4.6h-2.4l0-20.9h0.1h7
			C484.3,201.4,485.8,205,485.8,211.9z M483.3,211.9c0-6.3-1-8.4-5.9-8.4h-4.6v16.9l4.6,0C482.2,220.3,483.3,218.2,483.3,211.9z"/>
		<path id="XMLID_618_" class="st0" d="M513.3,211.9c0,6.9-1.5,10.8-8.3,10.8c-6.8,0-8.3-3.9-8.3-10.8c0-6.9,1.5-10.8,8.3-10.8
			C511.8,201.1,513.3,205,513.3,211.9z M499.2,211.9c0,6.2,1.1,8.6,5.8,8.6c4.8,0,5.8-2.4,5.8-8.6c0-6.2-1.1-8.6-5.8-8.6
			C500.2,203.3,499.2,205.7,499.2,211.9z"/>
		<path id="XMLID_621_" class="st0" d="M531.1,213.3h-4.1v8.9h-2.4l0-20.8h2v0h5c4.7,0,7.1,1.5,7.1,6c0,3.7-1.7,5.4-5,5.8l5.3,9.1
			l-2.8,0L531.1,213.3z M527.1,211.4h4.5c3.5,0,4.6-0.8,4.6-4c0-3.1-1.1-4-4.6-4h-4.5V211.4z"/>
		<path id="XMLID_624_" class="st0" d="M552.2,203.4v7.2l9.1,0v2l-9.1,0v7.7l9.6,0v2l-9.6,0v0h-2.4v-20.9h1.8l10.2,0v2L552.2,203.4z
			"/>
		<path id="XMLID_627_" class="st0" d="M583.7,201.7v2.2c-1.5-0.3-3.6-0.6-5.4-0.6c-3.9,0-4.6,1.2-4.6,3.5c0,1.9,0.5,2.3,4.5,3.8
			c4.2,1.5,6.3,2.2,6.3,6.1c0,4.6-2.9,6-7.3,6c-2,0-3.9-0.3-5.9-0.8v-2.2c2.1,0.5,4,0.8,5.9,0.8c3.4,0,4.9-0.9,4.9-3.8
			c0-2.2-0.9-2.8-4.6-4c-4.4-1.5-6.2-2-6.2-5.8c0-3.6,1.6-5.8,7.1-5.8C580.1,201.1,582.1,201.3,583.7,201.7z"/>
		<path id="XMLID_631_" class="st0" d="M624.6,211.9c0,6.9-1.5,10.4-8.3,10.4h-4.6h-2.4v-20.9h0.1h7
			C623.1,201.4,624.6,205,624.6,211.9z M622.1,211.9c0-6.3-1-8.4-5.9-8.4h-4.6v16.9l4.6,0C621.1,220.3,622.1,218.2,622.1,211.9z"/>
		<path id="XMLID_636_" class="st0" d="M638.3,203.4v7.2l9.1,0v2l-9.1,0v7.7l9.6,0v2l-9.6,0v0h-2.4v-20.9h1.8l10.2,0v2L638.3,203.4z
			"/>
		<path id="XMLID_638_" class="st0" d="M683.8,201.7v2.2c-1.5-0.3-3.6-0.6-5.4-0.6c-3.9,0-4.6,1.2-4.6,3.5c0,1.9,0.5,2.3,4.5,3.8
			c4.2,1.5,6.3,2.2,6.3,6.1c0,4.6-2.9,6-7.3,6c-2,0-3.9-0.3-5.9-0.8v-2.2c2.1,0.5,4,0.8,5.9,0.8c3.4,0,4.9-0.9,4.9-3.8
			c0-2.2-0.9-2.8-4.6-4c-4.4-1.5-6.2-2-6.2-5.8c0-3.6,1.6-5.8,7.1-5.8C680.1,201.1,682.1,201.3,683.8,201.7z"/>
		<path id="XMLID_641_" class="st0" d="M697.8,203.4v7.2l9.1,0v2l-9.1,0v7.7l9.6,0v2l-9.6,0v0h-2.4v-20.9h1.8l10.2,0v2L697.8,203.4z
			"/>
		<path id="XMLID_643_" class="st0" d="M726,222.7c-6.9,0-8.4-3.8-8.4-10.8c0-6.9,1.5-10.7,8.5-10.7c1.7,0,3.7,0.2,5.6,0.6v2.2
			c-1.9-0.4-3.8-0.6-5.4-0.6c-5.1,0-6.1,2.3-6.1,8.5c0,6.4,1.1,8.7,5.9,8.7c4.2,0,4.6-1.8,4.5-6.6v-0.6h-4v-2l6.4,0v2.5
			C733,219.7,732,222.7,726,222.7z"/>
		<path id="XMLID_645_" class="st0" d="M758.9,214.7c0,5.1-1.4,8-7.3,8c-5.9,0-7.3-2.9-7.3-8v-13.2h2.4v13.2c0,4.3,0.9,5.8,4.9,5.8
			c4,0,4.9-1.4,4.9-5.8v-13.2h2.4V214.7z"/>
		<path id="XMLID_648_" class="st0" d="M777,213.3h-4.1v8.9h-2.4v-20.8h2v0h5c4.7,0,7.1,1.5,7.1,6c0,3.7-1.7,5.4-5,5.8l5.3,9.1
			l-2.8,0L777,213.3z M772.9,211.4h4.5c3.5,0,4.6-0.8,4.6-4c0-3.1-1.1-4-4.6-4h-4.5V211.4z"/>
		<path id="XMLID_653_" class="st0" d="M811.8,211.9c0,6.9-1.5,10.8-8.3,10.8c-6.8,0-8.3-3.9-8.3-10.8c0-6.9,1.5-10.8,8.3-10.8
			C810.2,201.1,811.8,205,811.8,211.9z M797.6,211.9c0,6.2,1.1,8.6,5.8,8.6c4.8,0,5.8-2.4,5.8-8.6c0-6.2-1.1-8.6-5.8-8.6
			C798.6,203.3,797.6,205.7,797.6,211.9z"/>
		<path id="XMLID_656_" class="st0" d="M834.4,201.7l0,2.2c-1.5-0.3-3.6-0.6-5.4-0.6c-3.9,0-4.6,1.2-4.6,3.5c0,1.9,0.5,2.3,4.5,3.8
			c4.2,1.5,6.3,2.2,6.3,6.1c0,4.6-2.9,6-7.3,6c-2,0-4-0.3-5.9-0.8v-2.2c2.1,0.5,4,0.8,5.9,0.8c3.4,0,4.9-0.9,4.9-3.8
			c0-2.2-0.9-2.8-4.6-4c-4.4-1.5-6.2-2-6.2-5.8c0-3.6,1.6-5.8,7.1-5.8C830.8,201.1,832.8,201.3,834.4,201.7z"/>
	</g>
</g>
</svg>
