<?xml version="1.0" encoding="utf-8"?>
<!-- Generator: Adobe Illustrator 22.0.1, SVG Export Plug-In . SVG Version: 6.00 Build 0)  -->
<svg version="1.1" id="Layer_1" xmlns="http://www.w3.org/2000/svg" xmlns:xlink="http://www.w3.org/1999/xlink" x="0px" y="0px"
	 viewBox="0 0 214.8 52.4" style="enable-background:new 0 0 214.8 52.4;" xml:space="preserve">
<style type="text/css">
	.st0{fill:#FFFFFF;}
	.st1{fill:#A23A8F;}
	.st2{fill:#812A84;}
	.st3{fill:#632B73;}
	.st4{fill:#F8A23F;}
	.st5{fill:#F3793B;}
	.st6{fill:#F16528;}
	.st7{fill:#FFFFFF;stroke:#FFFFFF;stroke-width:0.1444;stroke-miterlimit:10;}
</style>
<g id="XMLID_746_">
	<g id="XMLID_747_">
		<g id="XMLID_748_">
			<g>
				<path id="XMLID_200_" class="st0" d="M71.5,12.4c1.6,0,3.3,0.2,5.1,0.6v3.1c-1.6-0.4-3.2-0.6-4.7-0.6c-4.4,0-5.4,2.1-5.4,7.8
					c0,5.7,1,7.8,5.4,7.8c1.6,0,3.2-0.3,4.7-0.6l0,3.1c-1.6,0.4-3.3,0.6-5.1,0.6c-7,0-8.6-4-8.6-10.9C62.8,16.3,64.5,12.4,71.5,12.4
					L71.5,12.4z"/>
				<path id="XMLID_197_" class="st0" d="M94.7,25.9c0,5.3-1.8,8.4-7.5,8.4c-5.7,0-7.5-3.1-7.5-8.4s1.8-8.4,7.5-8.4
					C92.9,17.5,94.7,20.5,94.7,25.9z M83.1,25.9c0,4,0.9,5.5,4.2,5.5c3.2,0,4.2-1.6,4.2-5.5c0-4-0.9-5.6-4.2-5.6
					C84,20.3,83.1,21.9,83.1,25.9z"/>
				<path id="XMLID_195_" class="st0" d="M112.3,22.8v11.1h-3.2V23.3c0-2.3-0.9-3-2.5-3c-1.4,0-3.2,0.5-5.2,1.4l0,12.1h-3.2l0-16
					h2.9l0.2,1.3c2.2-1,4.4-1.6,6.2-1.6C110.3,17.5,112.3,19,112.3,22.8z"/>
				<path id="XMLID_193_" class="st0" d="M126.7,18l0,2.7c-1.5-0.3-3.2-0.5-4.6-0.5c-2.7,0-3,0.8-3,1.9c0,1.2,0.4,1.4,2.9,2.2
					c3.1,0.9,5.7,1.5,5.7,5.1c0,3.7-2.7,4.9-6.5,4.9c-1.7,0-3.4-0.2-5.3-0.7v-2.8c1.8,0.4,3.5,0.7,5.2,0.7c2.3,0,3.3-0.5,3.3-2.1
					c0-1.4-0.7-1.6-3.2-2.3c-3.8-1.2-5.3-1.7-5.3-4.8c0-3,1.4-4.8,6.1-4.8C123.7,17.5,125.5,17.7,126.7,18z"/>
				<path id="XMLID_190_" class="st0" d="M145,25.7c0,0.4-0.1,0.6-0.1,1.2l0,0v0l-10.7,0c0.2,3.4,1.2,4.5,4.4,4.5
					c1.9,0,4.2-0.4,5.7-1.2l0,2.7c-1.5,0.8-3.7,1.3-5.9,1.3c-5.7,0-7.5-3-7.5-8.3c0-5.3,1.8-8.4,7.3-8.4
					C144.7,17.5,145.2,22,145,25.7z M134.2,24.5l7.6,0c0.1-2-0.2-4.3-3.7-4.3C135.4,20.2,134.4,21.5,134.2,24.5z"/>
				<path id="XMLID_187_" class="st0" d="M152.3,35.9c0,3.3-2.1,4.3-4.9,4.3c-0.3,0-0.6,0-1,0v-2.7c0.2,0,0.3,0,0.4,0
					c1.8,0,2.3-0.7,2.3-2.1V17.9h3.2V35.9z M152.4,15.7h-3.5l0-3.4h3.5L152.4,15.7z"/>
				<path id="XMLID_184_" class="st0" d="M170.6,25.7c0,0.4-0.1,0.6-0.1,1.2l0,0v0l-10.7,0c0.2,3.4,1.2,4.5,4.4,4.5
					c1.9,0,4.2-0.4,5.7-1.2l0,2.7c-1.5,0.8-3.7,1.3-5.9,1.3c-5.7,0-7.5-3-7.5-8.3c0-5.3,1.8-8.4,7.3-8.4
					C170.3,17.5,170.8,22,170.6,25.7z M159.8,24.5l7.6,0c0.1-2-0.2-4.3-3.7-4.3C161.1,20.2,160.1,21.5,159.8,24.5z"/>
				<path id="XMLID_182_" class="st0" d="M184,20.2c-1.6,0-3.2,0.5-6.3,2.1l0,11.5h-3.2l0-16h2.9l0.2,1.7c2.8-1.4,4.6-2.1,6.4-2.1
					V20.2z"/>
				<path id="XMLID_179_" class="st0" d="M200.4,25.9c0,5.3-1.8,8.4-7.5,8.4c-5.7,0-7.5-3.1-7.5-8.4s1.8-8.4,7.5-8.4
					C198.7,17.5,200.4,20.5,200.4,25.9z M188.8,25.9c0,4,0.9,5.5,4.2,5.5c3.2,0,4.2-1.6,4.2-5.5c0-4-0.9-5.6-4.2-5.6
					C189.8,20.3,188.8,21.9,188.8,25.9z"/>
				<path id="XMLID_177_" class="st0" d="M213.9,18v2.7c-1.5-0.3-3.2-0.5-4.6-0.5c-2.7,0-3,0.8-3,1.9c0,1.2,0.4,1.4,2.9,2.2
					c3.1,0.9,5.7,1.5,5.7,5.1c0,3.7-2.7,4.9-6.5,4.9c-1.7,0-3.4-0.2-5.3-0.7v-2.8c1.8,0.4,3.5,0.7,5.2,0.7c2.3,0,3.3-0.5,3.3-2.1
					c0-1.4-0.7-1.6-3.2-2.3c-3.8-1.2-5.3-1.7-5.3-4.8c0-3,1.4-4.8,6.1-4.8C210.9,17.5,212.7,17.7,213.9,18z"/>
			</g>
		</g>
	</g>
	<g id="XMLID_749_">
		<g id="XMLID_768_">
			<polygon id="XMLID_769_" class="st1" points="0,38.4 19.8,49.9 33.2,42.1 13.5,30.6 			"/>
		</g>
	</g>
	<g id="XMLID_771_">
		<g id="XMLID_772_">
			<polygon id="XMLID_773_" class="st2" points="0,38.4 0,15.5 13.5,7.7 13.5,30.6 			"/>
		</g>
	</g>
	<polygon id="XMLID_774_" class="st3" points="13.5,30.6 0,22.8 0,38.4 	"/>
	<g id="XMLID_775_">
		<g id="XMLID_776_">
			<g id="XMLID_777_">
				<polygon id="XMLID_778_" class="st4" points="46.7,11.5 26.9,0 13.5,7.7 33.2,19.3 				"/>
			</g>
		</g>
		<g id="XMLID_779_">
			<g id="XMLID_780_">
				<polygon id="XMLID_781_" class="st5" points="46.7,11.5 46.7,34.4 33.2,42.1 33.2,19.3 				"/>
			</g>
		</g>
		<polygon id="XMLID_782_" class="st6" points="33.2,19.3 46.7,27.1 46.7,11.5 		"/>
	</g>
	<g id="XMLID_783_">
		<path id="XMLID_784_" class="st7" d="M84.5,47.4v0.5c-0.4-0.1-0.7-0.1-1.1-0.1c-1.1,0-1.4,0.6-1.4,2c0,1.5,0.3,2,1.4,2
			c0.4,0,0.8-0.1,1.1-0.1l0,0.5c-0.4,0.1-0.7,0.1-1.1,0.1c-1.6,0-1.9-0.9-1.9-2.5c0-1.6,0.4-2.5,1.9-2.5
			C83.8,47.3,84.1,47.3,84.5,47.4z"/>
		<path id="XMLID_786_" class="st7" d="M90.8,49.8c0,1.6-0.4,2.5-2,2.5s-2-0.9-2-2.5c0-1.6,0.4-2.5,2-2.5S90.8,48.2,90.8,49.8z
			 M87.5,49.8c0,1.5,0.3,2,1.4,2c1.1,0,1.4-0.6,1.4-2c0-1.5-0.3-2-1.4-2C87.7,47.8,87.5,48.3,87.5,49.8z"/>
		<path id="XMLID_789_" class="st7" d="M95,50.1h-1v2.1h-0.6l0-4.9h0.5v0h1.2c1.1,0,1.7,0.4,1.7,1.4c0,0.9-0.4,1.3-1.2,1.4l1.2,2.1
			l-0.7,0L95,50.1z M94,49.7h1.1c0.8,0,1.1-0.2,1.1-0.9c0-0.7-0.3-0.9-1.1-0.9H94V49.7z"/>
		<path id="XMLID_792_" class="st7" d="M100.9,50.1h-1v2.1h-0.6l0-4.9h0.5v0h1.2c1.1,0,1.7,0.4,1.7,1.4c0,0.9-0.4,1.3-1.2,1.4
			l1.2,2.1l-0.7,0L100.9,50.1z M99.9,49.7h1.1c0.8,0,1.1-0.2,1.1-0.9c0-0.7-0.3-0.9-1.1-0.9h-1.1V49.7z"/>
		<path id="XMLID_796_" class="st7" d="M105.8,47.8v1.7l2.1,0V50l-2.1,0v1.8l2.3,0v0.5l-2.3,0v0h-0.6l0-4.9h0.4l2.4,0v0.5
			L105.8,47.8z"/>
		<path id="XMLID_811_" class="st7" d="M114.2,49.8c0,1.6-0.4,2.4-1.9,2.4h-1.1h-0.6l0-4.9h0h1.6C113.8,47.4,114.2,48.2,114.2,49.8z
			 M113.6,49.8c0-1.5-0.2-2-1.4-2h-1.1v4l1.1,0C113.4,51.8,113.6,51.3,113.6,49.8z"/>
		<path id="XMLID_818_" class="st7" d="M120.7,49.8c0,1.6-0.4,2.5-2,2.5c-1.6,0-2-0.9-2-2.5c0-1.6,0.4-2.5,2-2.5
			C120.3,47.3,120.7,48.2,120.7,49.8z M117.3,49.8c0,1.5,0.2,2,1.4,2c1.1,0,1.4-0.6,1.4-2c0-1.5-0.3-2-1.4-2
			C117.6,47.8,117.3,48.3,117.3,49.8z"/>
		<path id="XMLID_832_" class="st7" d="M124.8,50.1h-1v2.1h-0.6l0-4.9h0.5v0h1.2c1.1,0,1.7,0.4,1.7,1.4c0,0.9-0.4,1.3-1.2,1.4
			l1.2,2.1l-0.7,0L124.8,50.1z M123.9,49.7h1.1c0.8,0,1.1-0.2,1.1-0.9c0-0.7-0.3-0.9-1.1-0.9h-1.1V49.7z"/>
		<path id="XMLID_846_" class="st7" d="M129.8,47.8v1.7l2.1,0V50l-2.1,0v1.8l2.3,0v0.5l-2.3,0v0h-0.6v-4.9h0.4l2.4,0v0.5L129.8,47.8
			z"/>
		<path id="XMLID_865_" class="st7" d="M137.2,47.4v0.5c-0.4-0.1-0.8-0.1-1.3-0.1c-0.9,0-1.1,0.3-1.1,0.8c0,0.5,0.1,0.5,1.1,0.9
			c1,0.3,1.5,0.5,1.5,1.4c0,1.1-0.7,1.4-1.7,1.4c-0.5,0-0.9-0.1-1.4-0.2v-0.5c0.5,0.1,0.9,0.2,1.4,0.2c0.8,0,1.2-0.2,1.2-0.9
			c0-0.5-0.2-0.6-1.1-0.9c-1-0.4-1.5-0.5-1.5-1.4c0-0.8,0.4-1.4,1.7-1.4C136.4,47.3,136.8,47.3,137.2,47.4z"/>
		<path id="XMLID_869_" class="st7" d="M146.8,49.8c0,1.6-0.4,2.4-1.9,2.4h-1.1h-0.6v-4.9h0h1.6C146.5,47.4,146.8,48.2,146.8,49.8z
			 M146.2,49.8c0-1.5-0.2-2-1.4-2h-1.1v4l1.1,0C146,51.8,146.2,51.3,146.2,49.8z"/>
		<path id="XMLID_872_" class="st7" d="M150,47.8v1.7l2.1,0V50l-2.1,0v1.8l2.3,0v0.5l-2.3,0v0h-0.6v-4.9h0.4l2.4,0v0.5L150,47.8z"/>
		<path id="XMLID_887_" class="st7" d="M160.7,47.4v0.5c-0.4-0.1-0.8-0.1-1.3-0.1c-0.9,0-1.1,0.3-1.1,0.8c0,0.5,0.1,0.5,1.1,0.9
			c1,0.3,1.5,0.5,1.5,1.4c0,1.1-0.7,1.4-1.7,1.4c-0.5,0-0.9-0.1-1.4-0.2v-0.5c0.5,0.1,0.9,0.2,1.4,0.2c0.8,0,1.2-0.2,1.2-0.9
			c0-0.5-0.2-0.6-1.1-0.9c-1-0.4-1.5-0.5-1.5-1.4c0-0.8,0.4-1.4,1.7-1.4C159.9,47.3,160.3,47.3,160.7,47.4z"/>
		<path id="XMLID_889_" class="st7" d="M164,47.8v1.7l2.1,0V50l-2.1,0v1.8l2.3,0v0.5l-2.3,0v0h-0.6v-4.9h0.4l2.4,0v0.5L164,47.8z"/>
		<path id="XMLID_891_" class="st7" d="M170.6,52.3c-1.6,0-2-0.9-2-2.5c0-1.6,0.4-2.5,2-2.5c0.4,0,0.9,0.1,1.3,0.1v0.5
			c-0.4-0.1-0.9-0.1-1.3-0.1c-1.2,0-1.4,0.5-1.4,2c0,1.5,0.3,2,1.4,2c1,0,1.1-0.4,1.1-1.6v-0.1h-0.9v-0.5l1.5,0v0.6
			C172.3,51.6,172.1,52.3,170.6,52.3z"/>
		<path id="XMLID_893_" class="st7" d="M178.4,50.5c0,1.2-0.3,1.9-1.7,1.9c-1.4,0-1.7-0.7-1.7-1.9v-3.1h0.6v3.1c0,1,0.2,1.4,1.1,1.4
			c0.9,0,1.1-0.3,1.1-1.4v-3.1h0.6V50.5z"/>
		<path id="XMLID_895_" class="st7" d="M182.6,50.1h-1v2.1h-0.6v-4.9h0.5v0h1.2c1.1,0,1.7,0.4,1.7,1.4c0,0.9-0.4,1.3-1.2,1.4
			l1.2,2.1l-0.7,0L182.6,50.1z M181.7,49.7h1.1c0.8,0,1.1-0.2,1.1-0.9c0-0.7-0.3-0.9-1.1-0.9h-1.1V49.7z"/>
		<path id="XMLID_898_" class="st7" d="M190.8,49.8c0,1.6-0.4,2.5-2,2.5c-1.6,0-2-0.9-2-2.5c0-1.6,0.4-2.5,2-2.5
			C190.5,47.3,190.8,48.2,190.8,49.8z M187.5,49.8c0,1.5,0.3,2,1.4,2c1.1,0,1.4-0.6,1.4-2c0-1.5-0.3-2-1.4-2
			C187.7,47.8,187.5,48.3,187.5,49.8z"/>
		<path id="XMLID_901_" class="st7" d="M196.1,47.4l0,0.5c-0.4-0.1-0.8-0.1-1.3-0.1c-0.9,0-1.1,0.3-1.1,0.8c0,0.5,0.1,0.5,1.1,0.9
			c1,0.3,1.5,0.5,1.5,1.4c0,1.1-0.7,1.4-1.7,1.4c-0.5,0-0.9-0.1-1.4-0.2v-0.5c0.5,0.1,0.9,0.2,1.4,0.2c0.8,0,1.2-0.2,1.2-0.9
			c0-0.5-0.2-0.6-1.1-0.9c-1-0.4-1.5-0.5-1.5-1.4c0-0.8,0.4-1.4,1.7-1.4C195.3,47.3,195.8,47.3,196.1,47.4z"/>
	</g>
</g>
</svg>
